<svg xmlns="http://www.w3.org/2000/svg" xmlns:xlink="http://www.w3.org/1999/xlink" width="286" height="374" viewBox="0 0 286 374">
  <defs>
    <style>
      .cls-1, .cls-2 {
        fill: none;
      }

      .cls-2, .cls-5 {
        stroke: #000;
        stroke-width: 3px;
      }

      .cls-3 {
        clip-path: url(#clip-path);
      }

      .cls-4 {
        fill: #fff;
      }

      .cls-5 {
        fill: #64f04b;
      }

      .cls-6, .cls-7 {
        stroke: none;
      }

      .cls-7 {
        fill: #000;
      }

      .cls-8 {
        filter: url(#Rechteck_5);
      }
    </style>
    <clipPath id="clip-path">
      <rect class="cls-1" width="58" height="8"/>
    </clipPath>
    <filter id="Rechteck_5" x="0" y="0" width="286" height="374" filterUnits="userSpaceOnUse">
      <feOffset dy="3" input="SourceAlpha"/>
      <feGaussianBlur stdDeviation="3" result="blur"/>
      <feFlood flood-color="#d8f4ff"/>
      <feComposite operator="in" in2="blur"/>
      <feComposite in="SourceGraphic"/>
    </filter>
  </defs>
  <g id="Gruppe_23" data-name="Gruppe 23" transform="translate(-818 -274)">
    <g id="Gruppe_22" data-name="Gruppe 22">
      <g id="Gruppe_9" data-name="Gruppe 9" transform="translate(-457 -99)">
        <g id="Rechteck_4" data-name="Rechteck 4" class="cls-2" transform="translate(1284 379)">
          <rect class="cls-6" width="268" height="356" rx="16"/>
          <rect class="cls-1" x="1.5" y="1.5" width="265" height="353" rx="14.5"/>
        </g>
        <g id="Rechteck_6" data-name="Rechteck 6" class="cls-2" transform="translate(1382 392)">
          <rect class="cls-6" width="73" height="29" rx="8"/>
          <rect class="cls-1" x="1.5" y="1.5" width="70" height="26" rx="6.5"/>
        </g>
        <g id="Rechteck_8" data-name="Rechteck 8" class="cls-2" transform="translate(1298 392)">
          <path class="cls-6" d="M8,0H65a8,8,0,0,1,8,8V29a0,0,0,0,1,0,0H0a0,0,0,0,1,0,0V8A8,8,0,0,1,8,0Z"/>
          <path class="cls-1" d="M8,1.5H65A6.5,6.5,0,0,1,71.5,8V26A1.5,1.5,0,0,1,70,27.5H3A1.5,1.5,0,0,1,1.5,26V8A6.5,6.5,0,0,1,8,1.5Z"/>
        </g>
        <g id="Ellipse_20" data-name="Ellipse 20" class="cls-2" transform="translate(1482 394)">
          <circle class="cls-6" cx="19.5" cy="19.5" r="19.5"/>
          <circle class="cls-1" cx="19.5" cy="19.5" r="18"/>
        </g>
        <g id="Wiederholungsraster_2" data-name="Wiederholungsraster 2" class="cls-3" transform="translate(1390 427)">
          <g transform="translate(-534 -410)">
            <g id="Ellipse_15" data-name="Ellipse 15" class="cls-2" transform="translate(534 410)">
              <circle class="cls-6" cx="4" cy="4" r="4"/>
              <circle class="cls-1" cx="4" cy="4" r="2.5"/>
            </g>
          </g>
          <g transform="translate(-519 -410)">
            <g id="Ellipse_15-2" data-name="Ellipse 15" class="cls-2" transform="translate(534 410)">
              <circle class="cls-6" cx="4" cy="4" r="4"/>
              <circle class="cls-1" cx="4" cy="4" r="2.5"/>
            </g>
          </g>
          <g transform="translate(-504 -410)">
            <g id="Ellipse_15-3" data-name="Ellipse 15" class="cls-2" transform="translate(534 410)">
              <circle class="cls-6" cx="4" cy="4" r="4"/>
              <circle class="cls-1" cx="4" cy="4" r="2.5"/>
            </g>
          </g>
          <g transform="translate(-489 -410)">
            <g id="Ellipse_15-4" data-name="Ellipse 15" class="cls-2" transform="translate(534 410)">
              <circle class="cls-6" cx="4" cy="4" r="4"/>
              <circle class="cls-1" cx="4" cy="4" r="2.5"/>
            </g>
          </g>
        </g>
        <g id="Ellipse_22" data-name="Ellipse 22" class="cls-2" transform="translate(1501 406)">
          <circle class="cls-6" cx="4" cy="4" r="4"/>
          <circle class="cls-1" cx="4" cy="4" r="2.5"/>
        </g>
        <g id="Ellipse_16" data-name="Ellipse 16" class="cls-2" transform="translate(1320 480)">
          <circle class="cls-6" cx="98.5" cy="98.5" r="98.5"/>
          <circle class="cls-1" cx="98.5" cy="98.5" r="97"/>
        </g>
        <g id="Ellipse_18" data-name="Ellipse 18" class="cls-2" transform="translate(1336 497)">
          <circle class="cls-6" cx="82" cy="82" r="82"/>
          <circle class="cls-1" cx="82" cy="82" r="80.5"/>
        </g>
        <line id="Linie_2" data-name="Linie 2" class="cls-2" x2="265" transform="translate(1284.5 698.5)"/>
        <g id="Pfad_3" data-name="Pfad 3" class="cls-4" transform="translate(1451 536)">
          <path class="cls-6" d="M 29.50000190734863 83.5 C 26.64833068847656 83.5 24.7434024810791 82.88042449951172 23.67638969421387 81.60588073730469 C 22.64245986938477 80.370849609375 22.22138977050781 78.38177490234375 22.35126113891602 75.34615325927734 C 22.48080253601074 72.31851959228516 23.13656616210938 68.64810943603516 23.89588356018066 64.39813995361328 C 25.0570011138916 57.89923477172852 26.37304878234863 50.53321075439453 26.37304878234863 42.5 C 26.37304878234863 34.46678924560547 25.0570011138916 27.10077667236328 23.89588356018066 20.60187149047852 C 23.13656616210938 16.35189437866211 22.48080253601074 12.68149375915527 22.35126113891602 9.653846740722656 C 22.22138977050781 6.618223667144775 22.64245986938477 4.629152774810791 23.67638969421387 3.394117593765259 C 24.7434139251709 2.119576454162598 26.64833068847656 1.5 29.50000190734863 1.5 C 33.20310592651367 1.5 36.80384826660156 2.549988269805908 40.20220184326172 4.620788097381592 C 43.53530883789062 6.651835441589355 46.53818893432617 9.573046684265137 49.12741470336914 13.30328273773193 C 51.74469757080078 17.07395362854004 53.80210876464844 21.47347068786621 55.24249649047852 26.37963485717773 C 56.74045944213867 31.48195266723633 57.5 36.90562438964844 57.5 42.5 C 57.5 48.09437561035156 56.74045944213867 53.51805877685547 55.24249649047852 58.62037658691406 C 53.80210876464844 63.52653121948242 51.74469757080078 67.92604827880859 49.12741470336914 71.69671630859375 C 46.53818893432617 75.42695617675781 43.53530883789062 78.34816741943359 40.20220184326172 80.37921142578125 C 36.80384826660156 82.45001220703125 33.20310592651367 83.5 29.50000190734863 83.5 Z"/>
          <path class="cls-7" d="M 29.5 3 C 27.15274810791016 3 25.58037567138672 3.456558227539062 24.8265495300293 4.357002258300781 C 24.05800247192383 5.275039672851562 23.73852157592773 6.986679077148438 23.84989547729492 9.589736938476562 C 23.97512054443359 12.51678466796875 24.6226806640625 16.14125061035156 25.37249374389648 20.33805084228516 C 26.54457473754883 26.89829254150391 27.87304306030273 34.33383941650391 27.87304306030273 42.5 C 27.87304306030273 50.66616058349609 26.54457473754883 58.10169219970703 25.37249374389648 64.66194915771484 C 24.6226806640625 68.85873413085938 23.97512054443359 72.48321533203125 23.84989547729492 75.41026306152344 C 23.73852157592773 78.01332092285156 24.05800247192383 79.72496032714844 24.8265495300293 80.64299774169922 C 25.58037567138672 81.54344177246094 27.15274810791016 82 29.5 82 C 32.92374801635742 82 36.26188278198242 81.02371978759766 39.42165374755859 79.09829711914062 C 42.57505416870117 77.1767578125 45.42594909667969 74.39873504638672 47.89516448974609 70.84138488769531 C 50.42050933837891 67.20318603515625 52.40826797485352 62.94926452636719 53.80324172973633 58.19782638549805 C 55.26091003417969 53.2327995300293 56 47.95127868652344 56 42.5 C 56 37.0487060546875 55.26091003417969 31.7672004699707 53.80324172973633 26.80217361450195 C 52.40826797485352 22.05072021484375 50.42050933837891 17.79681396484375 47.89516448974609 14.15859985351562 C 45.42594909667969 10.60126495361328 42.57505416870117 7.8232421875 39.42165374755859 5.901702880859375 C 36.26188278198242 3.976280212402344 32.92374801635742 3 29.5 3 M 29.5 0 C 45.79240417480469 0 59 19.02789306640625 59 42.5 C 59 65.97209167480469 45.79240417480469 85 29.5 85 C 13.20760345458984 85 24.87304306030273 65.97209167480469 24.87304306030273 42.5 C 24.87304306030273 19.02789306640625 13.20760345458984 0 29.5 0 Z"/>
        </g>
        <g class="cls-8" transform="matrix(1, 0, 0, 1, 1275, 373)">
          <g id="Rechteck_5-2" data-name="Rechteck 5" class="cls-2" transform="translate(9 6)">
            <rect class="cls-6" width="268" height="356" rx="16"/>
            <rect class="cls-1" x="1.5" y="1.5" width="265" height="353" rx="14.5"/>
          </g>
        </g>
        <g id="Rechteck_7" data-name="Rechteck 7" class="cls-2" transform="translate(1382 392)">
          <rect class="cls-6" width="73" height="29" rx="8"/>
          <rect class="cls-1" x="1.5" y="1.5" width="70" height="26" rx="6.5"/>
        </g>
        <g id="Rechteck_9" data-name="Rechteck 9" class="cls-2" transform="translate(1298 392)">
          <path class="cls-6" d="M8,0H65a8,8,0,0,1,8,8V29a0,0,0,0,1,0,0H0a0,0,0,0,1,0,0V8A8,8,0,0,1,8,0Z"/>
          <path class="cls-1" d="M8,1.5H65A6.5,6.5,0,0,1,71.5,8V26A1.5,1.5,0,0,1,70,27.5H3A1.5,1.5,0,0,1,1.5,26V8A6.5,6.5,0,0,1,8,1.5Z"/>
        </g>
        <g id="Ellipse_21" data-name="Ellipse 21" class="cls-2" transform="translate(1482 394)">
          <circle class="cls-6" cx="19.5" cy="19.5" r="19.5"/>
          <circle class="cls-1" cx="19.5" cy="19.5" r="18"/>
        </g>
        <g id="Wiederholungsraster_3" data-name="Wiederholungsraster 3" class="cls-3" transform="translate(1390 427)">
          <g transform="translate(-534 -410)">
            <g id="Ellipse_15-5" data-name="Ellipse 15" class="cls-2" transform="translate(534 410)">
              <circle class="cls-6" cx="4" cy="4" r="4"/>
              <circle class="cls-1" cx="4" cy="4" r="2.5"/>
            </g>
          </g>
          <g transform="translate(-519 -410)">
            <g id="Ellipse_15-6" data-name="Ellipse 15" class="cls-2" transform="translate(534 410)">
              <circle class="cls-6" cx="4" cy="4" r="4"/>
              <circle class="cls-1" cx="4" cy="4" r="2.5"/>
            </g>
          </g>
          <g transform="translate(-504 -410)">
            <g id="Ellipse_15-7" data-name="Ellipse 15" class="cls-2" transform="translate(534 410)">
              <circle class="cls-6" cx="4" cy="4" r="4"/>
              <circle class="cls-1" cx="4" cy="4" r="2.5"/>
            </g>
          </g>
          <g transform="translate(-489 -410)">
            <g id="Ellipse_15-8" data-name="Ellipse 15" class="cls-2" transform="translate(534 410)">
              <circle class="cls-6" cx="4" cy="4" r="4"/>
              <circle class="cls-1" cx="4" cy="4" r="2.5"/>
            </g>
          </g>
        </g>
        <g id="Ellipse_23" data-name="Ellipse 23" class="cls-2" transform="translate(1501 406)">
          <circle class="cls-6" cx="4" cy="4" r="4"/>
          <circle class="cls-1" cx="4" cy="4" r="2.5"/>
        </g>
        <g id="Ellipse_17" data-name="Ellipse 17" class="cls-2" transform="translate(1320 480)">
          <circle class="cls-6" cx="98.5" cy="98.5" r="98.5"/>
          <circle class="cls-1" cx="98.5" cy="98.5" r="97"/>
        </g>
        <g id="Ellipse_19" data-name="Ellipse 19" class="cls-5" transform="translate(1336 497)">
          <circle class="cls-6" cx="82" cy="82" r="82"/>
          <circle class="cls-1" cx="82" cy="82" r="80.5"/>
        </g>
        <line id="Linie_3" data-name="Linie 3" class="cls-2" x2="265" transform="translate(1284.5 698.5)"/>
        <g id="Pfad_4" data-name="Pfad 4" class="cls-4" transform="translate(1451 536)">
          <path class="cls-6" d="M 29.50000190734863 83.5 C 26.64833068847656 83.5 24.7434024810791 82.88042449951172 23.67638969421387 81.60588073730469 C 22.64245986938477 80.370849609375 22.22138977050781 78.38177490234375 22.35126113891602 75.34615325927734 C 22.48080253601074 72.31851959228516 23.13656616210938 68.64810943603516 23.89588356018066 64.39813995361328 C 25.0570011138916 57.89923477172852 26.37304878234863 50.53321075439453 26.37304878234863 42.5 C 26.37304878234863 34.46678924560547 25.0570011138916 27.10077667236328 23.89588356018066 20.60187149047852 C 23.13656616210938 16.35189437866211 22.48080253601074 12.68149375915527 22.35126113891602 9.653846740722656 C 22.22138977050781 6.618223667144775 22.64245986938477 4.629152774810791 23.67638969421387 3.394117593765259 C 24.7434139251709 2.119576454162598 26.64833068847656 1.5 29.50000190734863 1.5 C 33.20310592651367 1.5 36.80384826660156 2.549988269805908 40.20220184326172 4.620788097381592 C 43.53530883789062 6.651835441589355 46.53818893432617 9.573046684265137 49.12741470336914 13.30328273773193 C 51.74469757080078 17.07395362854004 53.80210876464844 21.47347068786621 55.24249649047852 26.37963485717773 C 56.74045944213867 31.48195266723633 57.5 36.90562438964844 57.5 42.5 C 57.5 48.09437561035156 56.74045944213867 53.51805877685547 55.24249649047852 58.62037658691406 C 53.80210876464844 63.52653121948242 51.74469757080078 67.92604827880859 49.12741470336914 71.69671630859375 C 46.53818893432617 75.42695617675781 43.53530883789062 78.34816741943359 40.20220184326172 80.37921142578125 C 36.80384826660156 82.45001220703125 33.20310592651367 83.5 29.50000190734863 83.5 Z"/>
          <path class="cls-7" d="M 29.5 3 C 27.15274810791016 3 25.58037567138672 3.456558227539062 24.8265495300293 4.357002258300781 C 24.05800247192383 5.275039672851562 23.73852157592773 6.986679077148438 23.84989547729492 9.589736938476562 C 23.97512054443359 12.51678466796875 24.6226806640625 16.14125061035156 25.37249374389648 20.33805084228516 C 26.54457473754883 26.89829254150391 27.87304306030273 34.33383941650391 27.87304306030273 42.5 C 27.87304306030273 50.66616058349609 26.54457473754883 58.10169219970703 25.37249374389648 64.66194915771484 C 24.6226806640625 68.85873413085938 23.97512054443359 72.48321533203125 23.84989547729492 75.41026306152344 C 23.73852157592773 78.01332092285156 24.05800247192383 79.72496032714844 24.8265495300293 80.64299774169922 C 25.58037567138672 81.54344177246094 27.15274810791016 82 29.5 82 C 32.92374801635742 82 36.26188278198242 81.02371978759766 39.42165374755859 79.09829711914062 C 42.57505416870117 77.1767578125 45.42594909667969 74.39873504638672 47.89516448974609 70.84138488769531 C 50.42050933837891 67.20318603515625 52.40826797485352 62.94926452636719 53.80324172973633 58.19782638549805 C 55.26091003417969 53.2327995300293 56 47.95127868652344 56 42.5 C 56 37.0487060546875 55.26091003417969 31.7672004699707 53.80324172973633 26.80217361450195 C 52.40826797485352 22.05072021484375 50.42050933837891 17.79681396484375 47.89516448974609 14.15859985351562 C 45.42594909667969 10.60126495361328 42.57505416870117 7.8232421875 39.42165374755859 5.901702880859375 C 36.26188278198242 3.976280212402344 32.92374801635742 3 29.5 3 M 29.5 0 C 45.79240417480469 0 59 19.02789306640625 59 42.5 C 59 65.97209167480469 45.79240417480469 85 29.5 85 C 13.20760345458984 85 24.87304306030273 65.97209167480469 24.87304306030273 42.5 C 24.87304306030273 19.02789306640625 13.20760345458984 0 29.5 0 Z"/>
        </g>
      </g>
    </g>
  </g>
</svg>
