<?xml version="1.0" standalone="no"?>
<!DOCTYPE svg PUBLIC "-//W3C//DTD SVG 20010904//EN"
 "http://www.w3.org/TR/2001/REC-SVG-20010904/DTD/svg10.dtd">
<svg version="1.0" xmlns="http://www.w3.org/2000/svg"
 width="512.000000pt" height="512.000000pt" viewBox="0 0 512.000000 512.000000"
 preserveAspectRatio="xMidYMid meet">
<metadata>
Created by potrace 1.14, written by Peter Selinger 2001-2017
</metadata>
<g transform="translate(0.000000,512.000000) scale(0.100000,-0.100000)"
fill="#000000" stroke="none">
<path d="M1748 5075 c-2 -2 -111 -6 -243 -9 -456 -13 -718 -30 -865 -57 -210
-38 -314 -208 -307 -505 l2 -116 -30 7 c-16 4 -43 9 -60 11 -16 3 -37 7 -45
10 -8 3 -38 8 -67 10 -44 4 -53 2 -62 -15 -16 -29 -14 -38 19 -72 16 -18 27
-36 24 -41 -3 -4 -2 -7 3 -6 9 3 127 -111 128 -123 0 -3 14 -18 30 -32 24 -21
26 -26 12 -27 -11 0 -15 4 -11 12 5 7 3 8 -6 3 -9 -5 -11 -4 -6 3 14 23 -2 11
-18 -12 -11 -18 -13 -27 -4 -32 6 -4 8 -3 4 4 -3 6 -2 13 3 16 13 8 42 -4 35
-15 -3 -5 -10 -6 -16 -3 -7 5 -8 2 -3 -5 9 -16 -25 -92 -38 -84 -6 3 -7 1 -3
-5 3 -6 -6 -32 -22 -59 -15 -26 -36 -67 -46 -91 -18 -40 -18 -43 -2 -61 19
-21 50 -20 97 5 16 8 32 15 36 15 5 1 14 4 21 7 20 7 26 -5 28 -56 1 -26 2
-874 3 -1884 l1 -1838 2345 0 2345 0 0 2015 0 2015 -1912 1 c-1052 0 -1943 0
-1979 -1 -51 -1 -68 2 -72 14 -3 8 -2 18 3 21 5 3 11 -2 13 -10 4 -11 4 -10 3
2 -1 12 -8 17 -21 15 -16 -3 -17 -2 -6 12 8 9 21 16 30 16 13 0 14 2 2 9 -21
13 -52 -28 -40 -51 12 -22 14 -20 -37 -22 -31 -1 -40 2 -37 11 3 8 0 11 -9 8
-8 -3 -21 1 -28 10 -8 10 -9 15 -1 15 6 0 11 -4 11 -10 0 -5 5 -10 11 -10 6 0
8 9 4 23 l-6 22 14 -23 c7 -12 16 -20 20 -16 4 4 2 13 -4 20 -8 10 -3 17 20
28 35 19 41 19 41 6 0 -5 -3 -9 -7 -9 -21 3 -34 -2 -28 -11 4 -6 2 -16 -4 -23
-7 -9 -5 -16 7 -24 16 -9 17 -7 14 24 -3 21 0 33 7 31 6 -2 17 8 24 22 l13 25
1964 3 c1545 2 1966 5 1972 14 14 25 23 125 23 273 -1 127 -4 161 -24 225 -41
136 -105 221 -202 270 -66 34 -178 53 -384 65 -44 3 -111 7 -150 10 -38 2
-140 7 -225 11 -85 3 -204 8 -265 10 -122 5 -2032 14 -2037 9z m-821 -1007
c-3 -8 -6 -5 -6 6 -1 11 2 17 5 13 3 -3 4 -12 1 -19z"/>
<path d="M140 4249 c0 -5 -4 -8 -9 -4 -5 3 -12 1 -15 -4 -4 -5 2 -8 11 -7 15
3 33 26 19 26 -3 0 -6 -5 -6 -11z"/>
<path d="M156 4207 c-14 -10 -15 -14 -4 -14 7 0 19 6 26 14 7 7 9 13 4 13 -4
0 -16 -6 -26 -13z"/>
<path d="M110 4199 c0 -5 5 -7 10 -4 6 3 10 8 10 11 0 2 -4 4 -10 4 -5 0 -10
-5 -10 -11z"/>
<path d="M181 4187 c-11 -15 -3 -31 19 -35 11 -2 10 1 -3 12 -10 8 -14 17 -9
20 5 3 17 -3 26 -13 11 -13 14 -21 7 -26 -14 -8 -14 -35 -1 -35 5 0 6 7 3 17
-4 10 -2 14 5 9 6 -3 13 -2 16 3 4 5 2 12 -4 16 -6 4 -7 11 -4 17 4 7 2 8 -4
4 -7 -4 -12 -3 -12 2 0 16 -28 22 -39 9z"/>
<path d="M1093 4165 c0 -8 4 -12 9 -9 5 3 6 10 3 15 -9 13 -12 11 -12 -6z"/>
<path d="M995 4120 c3 -5 8 -10 11 -10 2 0 4 5 4 10 0 6 -5 10 -11 10 -5 0 -7
-4 -4 -10z"/>
<path d="M1116 4082 c-3 -5 1 -9 9 -9 8 0 12 4 9 9 -3 4 -7 8 -9 8 -2 0 -6 -4
-9 -8z"/>
<path d="M205 4040 c-3 -6 1 -7 9 -4 18 7 21 14 7 14 -6 0 -13 -4 -16 -10z"/>
<path d="M300 3790 c-8 -5 -17 -7 -21 -4 -4 2 -12 -3 -19 -11 -7 -8 -9 -15 -4
-15 5 0 2 -4 -6 -10 -9 -5 -19 -5 -27 2 -11 8 -12 7 -7 -6 4 -10 13 -15 20
-12 7 3 16 1 19 -4 3 -5 -4 -12 -16 -15 -11 -4 -18 -9 -16 -12 10 -9 46 18 41
30 -3 8 2 14 9 14 8 0 15 -10 15 -23 0 -13 -4 -21 -9 -18 -5 3 -9 1 -9 -4 0
-5 13 -9 29 -8 16 0 27 4 24 9 -2 4 -8 5 -13 2 -4 -3 -11 2 -14 11 -5 12 -1
14 17 10 12 -3 16 -3 9 0 -6 3 -9 11 -5 17 21 33 10 63 -17 47z m8 -23 c7 -5
10 -13 6 -18 -4 -6 -11 -6 -20 2 -8 6 -14 8 -14 5 0 -4 -5 -4 -10 -1 -6 4 -8
10 -5 15 6 9 24 8 43 -3z"/>
<path d="M176 3742 c-3 -4 4 -9 15 -9 23 -2 25 3 4 10 -8 4 -16 3 -19 -1z"/>
<path d="M230 3678 c0 -4 4 -8 9 -8 6 0 12 4 15 8 3 5 -1 9 -9 9 -8 0 -15 -4
-15 -9z"/>
<path d="M310 3669 c0 -5 5 -7 10 -4 6 3 10 8 10 11 0 2 -4 4 -10 4 -5 0 -10
-5 -10 -11z"/>
</g>
</svg>
